<svg xmlns="http://www.w3.org/2000/svg" width="119.494" height="52.453" viewBox="0 0 119.494 52.453"><title>GINZA Kantmatsu</title><path d="M57.102 4.083h-.056v7.575h1.043V4.083h-.056zm9.864.02h-.057v5.428l-5.616-5.767-.099-.101v8.014h1.065V6.2l5.614 5.768.1.1V4.103h-.058zm8.166-.02h-4.915v.965h3.206l-3.732 6.528-.048.082h5.448v-.963H71.35l3.733-6.527zm8.166 7.497L79.735 3.8l-.052-.111-.051.111-3.563 7.779-.037.078h1.124l.015-.031.835-1.838h3.353l.835 1.838.016.031h1.124l-.036-.077zm-3.615-5.579l1.24 2.824h-2.48l1.24-2.824zM42.11 41.38c-1.171-4.613-5.167-8.295-5.43-8.586-.262-.293-1.705-1.91-2.191-1.549-.485.361-.059.783-.059.783s3.143 2.711 4.951 5.465c3.587 5.734 3.421 10 2.946 11.729-.476 1.727-1.986 4.568-6.405.988-4.418-3.582-6.104-12.195-6.642-14.697-.538-2.502-2.938-15.404-2.875-15.568s.842-.525 1.101-.689c2.889-1.832 12.266-5.033 13.271-5.561 1.005-.529.836-1.373.444-1.564-.391-.193-.558-.68-4.712 1.041-5.16 1.955-12.996 7.51-13.547 7.84s-.391-.062-.391-.062.506-2.537.594-3.486c1.122-7.135.594-12.826-3.297-15.5C15.976-.71 12.758-.33 8.441 1.196 4.125 2.722-.623 7.896.067 13.457c.689 5.561 4.286 8.107 9.204 8.723 4.918.617 10.346-4.953 8.517-10.635-2.023-5.52-7.061-4.67-8.489-4.107-1.436.565-.415.813.491.386 1.491-.918 7.472-.227 7.687 5.609.212 7.061-7.377 10.791-13.396 6.213-6.02-4.58-3.585-14.719 4.593-17.932C16.886-1.208 19.689 4.08 19.689 4.08c1.244 2.205.73 1.631 1.127 2.887.931 2.955-.473 11.525-.473 11.525s-.718 4.561-1.167 5.475c-3.622 3.248-5.647 6.742-6.516 8.213-.796 1.348-4.231 9.176-.724 8.109 2.589-.787 5.495-5.344 6.841-8.184s3.128-8.906 3.255-9.33.256-.49.256-.49 1.103-.561 1.491-.824c.389-.262.618-.166.618-.166s.231.615.541 3.021c.31 2.408 3.051 12.803 3.317 13.613.266.812 1.019 4.229 3.507 8.404 2.009 3.369 7.02 8.021 9.865 5.301 2.751-2.631 1.038-8.07.483-10.254zM18.673 25.882s-2.751 9.322-5.714 12.893c-2.591 3.121-1.938-.512-1.613-1.555.731-2.344 2.404-7.096 6.739-11.238 1.101-1.09.588-.1.588-.1z"/><path d="M88.145 36.359c-2.101-4.123-3.038-4.244-3.038-4.244s-.855-.443.05.584c.905 1.025 3.711 4.553 4.287 9.711.574 5.16-2.026 5.537-3.15 5.32-1.123-.217-4.457-1.9-5.332-11.322-.444-5.787-.99-13.369-.99-13.369s.165-2.158-1.628-1.65c-1.344.414-2.667 3.744-2.667 3.744s-.268.227-.33-2.287c-.146-1.66-1.63-1.965-2.52-.746-.587.805-1.578 2.844-1.868 3.125l-.326-2.301s-.334-2.691-2.117-.928c-.49.451-.48 1.844-.921 3.014s-1.142 3.645-4.057 4.113c-1.435.324-2.114-.479-2.114-.479s2.907-1.504 3.197-5.051c.291-3.549-5.543-2.969-6.458.943-.742 2.969 1.062 4.348 1.062 4.348s-2.459 1.408-3.779-1.188c-.729-1.52-.842-4.752-.842-4.752s-.288-2.736-2.606-.43c-1.204 1.131-1.994 3.74-1.994 3.74s-.361-.223-.512-2.512-1.32-2.729-2.567-1.195c-1.247 1.535-1.542 4.098-2.88 5.363-1.157 1.445-1.7.91-1.977-.166-.507-1.791-.525-4.486-1.873-4.566-1.347-.08-2.188 1.543-2.897 2.939-.708 1.396-2.221 3.428-3.523 3.346-1.302-.08-1.22-1.068-.598-2.15.621-1.082 2.135-2.664 3.434-3.166 1.299-.504 1.786-1.449 1.197-2.209-.589-.758-1.527-.213-1.527-.213s-6.976 4.043-4.256 7.705c2.891 2.629 5.903-3.318 5.903-3.318s.842-1.396 1.528.395 1.646 4.207 3.882 3.115c1.789-1.045 2.665-4.104 3.154-4.871.489-.766 1.021-1.578 1.304.352.283 1.928.656 3.9.656 3.9s.188 1.391 1.219 1.113c1.03-.275.799-1.396.795-1.846-.003-.449.292-3.189 1.138-4.229.846-1.037.936-.949 1.122.037.187.986-.053 5.344 3.138 5.727 2.828.068 3.901-.479 3.901-.479s3.834 2.488 7.261-1.756c1.243-2.029 1.547-3.377 1.547-3.377s.771 7.49.785 9.557c.015 2.064.555 2.375 1.273 2.326.718-.051 1.212-.1.833-2.881-.337-3.318-.439-4.979-.439-4.979s-.007-1.033.434-2.203 1.679-3.873 1.918-1.854c.238 2.018.79 10.273.79 10.273s-.168 1.799 1.179 1.654c1.346-.145.888-1.309.838-2.027-.05-.717-.487-5.607-.487-5.607s-.053-1.213.344-2.158l.927-2.205s.977-1.668 1.125.307c.148 1.975.743 10.006.743 10.006s.268 6.238 3.08 10.303c2.812 4.066 4.834 4.502 7.021 2.557 1.971-2.284 1.308-6.778-.792-10.903zm-27.458-8.211c-.916-.992-.951-2.504-.903-3.197.049-.693.833-3.131 2.542-3.168 1.708-.039 1.747 1.723 1.747 1.723s.197 1.439-1.524 3.428c-1.568 1.808-1.721 1.366-1.862 1.214z"/><path d="M119.456 28.273c-.057-.506-.975-5.734-.975-5.734s-.062-1.121-1.102-1.061c-1.042.061-.843 1.822-.945 2.49-.102.67-.169 2.566-1.546 4.15-.503.537-.643-.316-.643-.316l-.864-5.174s-.251-1.654-1.529-.979c-.877.541-1.051 2.305-1.707 4.045-.655 1.74-1.107 2.09-1.188 2.117-.08.027.176-1.604-2.074-2.496-2.248-.891-4.549-1.49-3.146-3.209 2.047-1.295 2.564.17 3.1.406.536.236 1.017.287.826-.273-.19-.559-1.638-1.428-3.425-1.176-1.841.277-3.239 2.797-1.624 4.576.411.396 1.1.686 1.1.686s2.329.84 2.811 1.076 1.501 1.084.2 1.84c-1.384.545-2.377-.143-2.756-.861-.378-.717-1.075-.9-1.444-.311-.37.592-.527.859-1.408.998-.88.139-2.108.096-2.6-1.504-.492-1.598-.712-2.584-.712-2.584s-.055-.188.235-.67 1.842-3.885 1.984-6.449c.133-.16.48-.109.48-.109s9.985-.096 11.081.002c1.095.1 1.36-.168 1.332-.436-.029-.266-.11-.453-1.845-.334-1.734.119-10.838.344-10.838.344s-.212.188-.162-.293c.051-.482.255-5.557-1.481-5.678-1.735-.123-2.935 4.053-2.924 5.627.03.508-.264.375-.264.375s-3.764.135-5.206.064c-.508-.023-.72.111-.719.352.002.24-.291.322.75.262 1.041-.061 4.991-.248 4.991-.248s.32-.057.322.264c.003.32-.243 3.447 1.012 7.256.164.533-.129.643-.129.643s-1.267 1.959-2.225 2.551c-.958.594-1.282-.016-1.499-.416-.215-.398-.687-2.852-.824-3.385s-.307-2-2.013-1.508c-.771.324-1.379 1.371-1.589 1.801-.211.428-.629 1.553-1.689 2.762-1.06 1.207-2.335 2.283-3.169 1.303-.833-.982.943-2.758 1.181-3.053.238-.295 1.43-1.584 2.841-2.182 1.411-.598 1.083-1.691.814-1.955-.269-.266-.272-.613-1.363-.311 0 0-4.443 2.354-5.007 5.695-.369 2.457 2.497 4.555 5.318.656 1.027-1.41 1.769-3.582 2.659-1.674.891 1.908.9 2.717 2.213 3.402s3.09-1.09 4.572-2.943c.264-.375.321.08.321.08s1.034 2.795 3.091 2.834c1.922.039 2.558-.711 2.558-.711s.159-.082.374.104 3.729 2.564 6.349-.846c1.692-2.441 1.554-3 1.738-3.562.183-.562.421-.803.56-.029.14.771.556 3.094.667 3.732.112.639.551 2.398 1.854 1.455 1.3-.943 2.356-2.766 2.589-3.889.147-.711.266-.057.266-.057s.445 2.588.528 3.014c.083.426.33 1.307 1.209 1.193s.764-1.231.708-1.739zM97.162 16.867c.222-2.725.774-3.877.932-4.305.557-1.52 1.033-.031.959-.168.595 1.092.454 3.789.458 4.457.005.668-.37.482-.37.482l-1.762.014c-.001 0-.24.135-.217-.48zm.337 6.246c-.168-1.014-.51-4.029-.38-4.803.128-.775.29-.484.29-.484l1.682-.012s.346-.162.296.373c-.049.533-.586 3.875-1.565 5.137-.013.013-.21.476-.323-.211zM51.383 7.822v.961h1.969c-.287 1.236-1.233 2.102-2.458 2.102-1.474 0-2.819-1.336-2.819-2.984s1.345-2.984 2.819-2.984c.562 0 1.823.221 2.445 1.258l.736-.705c.011.035-.981-1.512-3.201-1.512-2.041 0-3.833 1.766-3.833 3.943 0 2.176 1.792 3.941 3.833 3.941 2.073 0 3.528-1.381 3.584-3.797l.002-.223h-3.077z"/></svg>